<svg id="Layer_2" data-name="Layer 2" xmlns="http://www.w3.org/2000/svg" xmlns:xlink="http://www.w3.org/1999/xlink" viewBox="0 0 980 980"><defs><style>.cls-1{fill:url(#linear-gradient);}</style><linearGradient id="linear-gradient" x1="155.42" y1="152.05" x2="851.53" y2="848.15" gradientUnits="userSpaceOnUse"><stop offset="0" stop-color="#c8a968"/><stop offset="1" stop-color="#834b1a"/></linearGradient></defs><title>logo</title><path class="cls-1" d="M461.54,10S389.1,13.54,314.3,44.47C185.89,97.56,10,246.38,10,517.24c0,0,4.5,316.18,319.59,442.42,38,15.22,81.57,25.75,122.13,20.5C524.15,970.76,599,906.28,500.8,729c0,0-63.8-118.19-137.42-201.91S172,290.7,196.5,211.91c0,0-82.79,69.78-77,182,2,38.67,15.21,75.87,36.28,108.31a1122.17,1122.17,0,0,0,108.7,140.87c35.08,38.52,67.47,79.48,95.09,123.69,34.77,55.65,64.6,118.81,33.25,134.54C333.93,930.9,240.68,857,240.68,857S-9.63,699.45,64,379.35c0,0,46.88-236.34,260.12-329.95,0,0-216,88.64,24.54,369.35C465.21,554.8,573.75,710.86,599,802.86,638.26,946.31,549.88,990,549.88,990s366.53-27.39,432.29-403c24.2-138.25-7.82-281.48-94.34-391.78C833.62,126.11,751.72,59.86,628.41,24.77c-34.75-9.89-80.2-15.44-112.88,0C468,47.22,423.09,102.34,486.08,231.61c0,0,41.6,114.75,176.69,265.93,127.61,142.81,162,201.91,147.24,300.4,0,0,166.87-152.66-2.18-361-35.71-44-84-95.72-110.7-131.49C623.5,207,555.05,114.32,623.5,93.72c49.08-14.77,289.57,88.64,328.84,349.65C981.14,634.83,868.9,857,682.4,945.68c0,0,201.23-83.72-4.91-334.87-142-173-252.37-336-274.85-433.37C372.1,45.23,461.54,10,461.54,10Z" transform="translate(-10 -10)"/></svg>